Coordinates
version=1
nRows=8
nColumns=34
inDegrees=yes

Units are S.I. units (second, meters, Newtons, ...)
If the header above contains a line with 'inDegrees', this indicates whether rotational values are in degrees (yes) or radians (no).

endheader
time	pelvis_tilt	pelvis_list	pelvis_rotation	pelvis_tx	pelvis_ty	pelvis_tz	hip_flexion_r	hip_adduction_r	hip_rotation_r	knee_angle_r	ankle_angle_r	subtalar_angle_r	mtp_angle_r	hip_flexion_l	hip_adduction_l	hip_rotation_l	knee_angle_l	ankle_angle_l	subtalar_angle_l	mtp_angle_l	lumbar_extension	lumbar_bending	lumbar_rotation	arm_flex_r	arm_add_r	arm_rot_r	elbow_flex_r	pro_sup_r	arm_flex_l	arm_add_l	arm_rot_l	elbow_flex_l	pro_sup_l
      1.46666670	     -0.59240901	     -0.37257397	     -3.98176406	     -1.56620175	      0.99080301	      0.03070266	     -3.61736588	      2.74772565	      0.85323288	      1.13023462	      5.41322386	     -7.01368377	      0.00000000	     -4.60403898	      1.44721959	     -4.48968647	      0.58754031	     10.61414168	      0.84772123	      0.00000000	      0.83371399	      1.67387640	     -4.25331147	      1.83881477	     -4.63625999	     11.51497687	     20.87745828	     89.31321027	     -1.82709869	     -6.70556286	     12.80989004	     24.12998933	     79.63804718
      1.48333330	     -0.61398067	     -0.37953538	     -3.98848558	     -1.56604702	      0.99026988	      0.03031520	     -3.66499887	      2.73505939	      0.84674733	      1.14695420	      5.41356192	     -7.01760804	      0.00000000	     -4.57204050	      1.45080850	     -4.49513951	      0.57724989	     10.61724343	      0.84226165	      0.00000000	      0.82657264	      1.67160163	     -4.25048375	      1.84021261	     -4.63432763	     11.51522055	     20.87892634	     89.31267298	     -1.82630802	     -6.70970465	     12.81011806	     24.13142453	     79.63731140
      1.50000000	     -0.61431304	     -0.24479169	     -3.89728500	     -1.56626094	      0.99030127	      0.02957768	     -3.78684024	      2.54435660	      0.67710785	      0.98635107	      5.48146252	     -7.13895724	      0.00000000	     -4.41441484	      1.60964680	     -4.65982596	      0.79959057	     10.65112939	      0.64930217	      0.00000000	      0.67528715	      1.52608476	     -4.21985830	      1.78752440	     -4.63729529	     11.51720950	     20.90938541	     89.29016108	     -1.77594462	     -6.78711087	     12.83267139	     24.21930558	     79.61093353
      1.51666670	     -0.60010247	     -0.25854747	     -3.82039421	     -1.56667894	      0.99069215	      0.02879173	     -3.82701058	      2.50824955	      0.70342274	      1.00791713	      5.47292148	     -7.12974053	      0.00000000	     -4.37864851	      1.60078137	     -4.65138908	      0.84469794	     10.63261204	      0.63839772	      0.00000000	      0.67349751	      1.49439095	     -4.20330464	      1.78720139	     -4.62697233	     11.51841807	     20.92218436	     89.28584419	     -1.77072692	     -6.79816142	     12.83815724	     24.23594263	     79.60609345
      1.53333330	     -0.55379296	     -0.21110798	     -3.63683140	     -1.56669398	      0.99095866	      0.02800363	     -3.91231621	      2.42256796	      0.79106497	      0.97012823	      5.45303259	     -7.09983414	      0.00000000	     -4.21339069	      1.63801034	     -4.58985138	      1.15289076	     10.48076265	      0.61847724	      0.00000000	      0.57745342	      1.40321412	     -4.25000485	      1.67910232	     -4.62185020	     11.52172171	     20.92715247	     89.26920458	     -1.64950858	     -6.83726658	     12.85733978	     24.32287489	     79.58877460
      1.55000000	     -0.54526883	     -0.20230978	     -3.46337430	     -1.56605748	      0.99081290	      0.02713109	     -3.98682495	      2.37831219	      0.69172545	      0.82658612	      5.39267951	     -7.16216076	      0.00000000	     -3.98662347	      1.63483938	     -4.45257733	      1.51860212	     10.35483138	      0.50744169	      0.00000000	      0.41302373	      1.26325077	     -4.25636349	      1.62966829	     -4.59692386	     11.51783679	     20.99860856	     89.23178506	     -1.48165048	     -6.93280905	     12.90564483	     24.45309663	     79.55570078
      1.56666670	     -0.55533823	     -0.23486813	     -3.45807908	     -1.56468496	      0.99039760	      0.02628654	     -3.99881472	      2.35800829	      0.69125136	      0.83904085	      5.38728424	     -7.16317207	      0.00000000	     -3.98520558	      1.64158327	     -4.44970288	      1.52607209	     10.35494712	      0.50388508	      0.00000000	      0.40970905	      1.26108752	     -4.25794437	      1.62768018	     -4.59507484	     11.51776888	     21.00002011	     89.23084991	     -1.47657842	     -6.93602871	     12.90674403	     24.45598308	     79.55492768
      1.58333330	     -0.47297485	     -0.27322973	     -3.16810430	     -1.56400916	      0.99006630	      0.02486523	     -4.03451727	      2.34886233	      0.33194013	      1.05793075	      5.12557049	     -7.42103004	      0.00000000	     -3.86592518	      1.63794799	     -4.12122124	      1.95559985	     10.48231205	      0.25152214	      0.00000000	      0.18728836	      1.23816201	     -4.30646235	      1.49790124	     -4.66426574	     11.48602200	     21.07193243	     89.15969209	     -1.31148863	     -6.95067648	     13.02242221	     24.61373478	     79.50499815
